<svg xmlns="http://www.w3.org/2000/svg" width="41.758" height="41.758" viewBox="0 0 41.758 41.758"><path d="M285.221,120.9a6.991,6.991,0,0,0-8.409-8.408l.558,2.383a4.543,4.543,0,0,1,5.467,5.467Zm0,0" transform="translate(-254.276 -103.14)" fill="#fafafa"/><path d="M269.876,51.6a10.007,10.007,0,0,1,2.674,9.419l2.383.559a12.5,12.5,0,0,0-8.847-14.922,12.6,12.6,0,0,0-6.189-.114l.559,2.383a10.008,10.008,0,0,1,9.419,2.675Zm0,0" transform="translate(-238.742 -42.441)" fill="#fafafa"/><path d="M31.069,23.038l-4.6,4.6a42.4,42.4,0,0,1-6.434-5.315,42.318,42.318,0,0,1-5.4-6.555l4.58-4.58L8.03,0,2.284,5.745l-.033.035C.078,8.131-.078,12.1,1.812,16.96a42.426,42.426,0,0,0,9.583,13.9A42.191,42.191,0,0,0,25.442,40.5a17,17,0,0,0,5.964,1.257,7.144,7.144,0,0,0,5.236-1.915l5.615-5.615ZM38.8,34.227,36.27,36.752l-7.727-7.727L31.069,26.5ZM15.757,11.188l-2.5,2.5L5.532,5.959l2.5-2.5ZM26.315,38.214a39.728,39.728,0,0,1-13.189-9.083A39.964,39.964,0,0,1,4.093,16.072C2.664,12.4,2.574,9.385,3.824,7.713l7.7,7.7-.005,0,.515.825A44.128,44.128,0,0,0,18.3,24.054a44.241,44.241,0,0,0,7.678,6.185l.827.52,0,0,7.7,7.7c-1.659,1.21-4.6,1.134-8.195-.239Zm0,0" transform="translate(-0.499 0.001)" fill="#fafafa"/></svg>