<svg xmlns="http://www.w3.org/2000/svg" width="40.65" height="35.728" viewBox="0 0 40.65 35.728"><g transform="translate(0 -31)"><path d="M258.673,181H242v9.527h16.673Zm-2.382,7.146H244.382v-4.764h11.909Z" transform="translate(-222.786 -138.091)" fill="#43a947"/><path d="M242,331h2.382v2.382H242Z" transform="translate(-222.786 -276.181)" fill="#43a947"/><path d="M302,331h2.382v2.382H302Z" transform="translate(-278.023 -276.181)" fill="#43a947"/><path d="M362,331h2.382v2.382H362Z" transform="translate(-333.259 -276.181)" fill="#43a947"/><path d="M422,331h2.382v2.382H422Z" transform="translate(-388.495 -276.181)" fill="#43a947"/><path d="M242,391h2.382v2.382H242Z" transform="translate(-222.786 -331.418)" fill="#43a947"/><path d="M302,391h2.382v2.382H302Z" transform="translate(-278.023 -331.418)" fill="#43a947"/><path d="M362,391h2.382v2.382H362Z" transform="translate(-333.259 -331.418)" fill="#43a947"/><path d="M422,391h2.382v2.382H422Z" transform="translate(-388.495 -331.418)" fill="#43a947"/><path d="M35.887,31H19.214v7.146H16.832V35.764H14.45V31H12.068v4.764h-7.3v2.382H0V66.728H40.65V38.146H35.887ZM21.6,33.382H33.5v4.764H21.6ZM7.146,38.146h7.3V59.582h-7.3Zm31.123,26.2H2.382V40.527H4.764V61.964H16.832V40.527H38.269Z" fill="#43a947"/></g></svg>