<svg xmlns="http://www.w3.org/2000/svg" width="37.197" height="37.77" viewBox="0 0 37.197 37.77"><path d="M0,0V37.77H37.2V0ZM34.984,35.557H2.213V8.986H34.984Zm0-28.784H16.131V4.656H13.953V6.773H11.486V4.656H9.308V6.773H6.84V4.656H4.663V6.773H2.213V2.213H34.984Zm0,0" fill="#43a947"/><path d="M124.609,186.643a10.156,10.156,0,1,0-10.156-10.156A10.167,10.167,0,0,0,124.609,186.643Zm3.169-2.874q.1-.24.2-.505a19.471,19.471,0,0,0,1.006-5.67h3.492a7.966,7.966,0,0,1-4.7,6.176Zm4.7-8.389h-3.492a19.462,19.462,0,0,0-1.006-5.67q-.1-.266-.2-.505A7.966,7.966,0,0,1,132.474,175.381Zm-7.865-6.836c.473,0,1.954,2.141,2.16,6.836h-4.32C122.654,170.686,124.136,168.545,124.609,168.545Zm2.16,9.049c-.205,4.7-1.687,6.836-2.16,6.836s-1.954-2.141-2.16-6.836Zm-5.329-8.389q-.1.24-.2.505a19.462,19.462,0,0,0-1.006,5.67h-3.492a7.965,7.965,0,0,1,4.7-6.176Zm-1.2,8.389a19.462,19.462,0,0,0,1.006,5.67q.1.266.2.505a7.965,7.965,0,0,1-4.7-6.176Zm0,0" transform="translate(-106.01 -154.062)" fill="#43a947"/></svg>