<svg xmlns="http://www.w3.org/2000/svg" width="324.255" height="26.132" viewBox="0 0 324.255 26.132"><g transform="translate(-236.235 -171.917)"><path d="M236.235,184.983c0-7.323,5.744-13.066,13.533-13.066a14.654,14.654,0,0,1,10.194,3.661L255.87,180.5a8.859,8.859,0,0,0-6.066-2.369c-3.626,0-6.426,3.05-6.426,6.964a6.637,6.637,0,0,0,6.82,6.964,7.1,7.1,0,0,0,4.02-1.042v-3.051h-4.953v-5.1h11.559v11.307a16.99,16.99,0,0,1-10.912,3.877C242.085,198.049,236.235,192.664,236.235,184.983Z" transform="translate(0)" fill="#000105"/><path d="M400.665,173.044h6.5L417.5,186.326V173.044h6.892v25.127h-6.1l-10.733-13.784v13.784h-6.892Z" transform="translate(-91.145 -0.625)" fill="#000105"/><path d="M465.265,173.044h20.21v5.922H472.157v3.805h12.061v5.492H472.157v3.984h13.5v5.923h-20.39Z" transform="translate(-126.953 -0.625)" fill="#000105"/><path d="M520.758,173.044h11.881c3.841,0,6.5,1.005,8.184,2.692a8.614,8.614,0,0,1-2.943,13.676l5.995,8.759h-8.041l-5.061-7.61h-3.051v7.61h-6.964Zm11.559,12.061c2.369,0,3.734-1.149,3.734-3.052,0-1.974-1.436-2.979-3.77-2.979h-4.559v6.031Z" transform="translate(-157.713 -0.625)" fill="#000105"/><path d="M587.043,172.641h6.712l10.7,25.307h-7.467l-1.831-4.487h-9.692l-1.795,4.487h-7.323Zm6.1,15.4-2.8-7.143-2.835,7.143Z" transform="translate(-188.526 -0.401)" fill="#000105"/><path d="M645.126,173.044h6.964v19.025h12.169v6.1H645.126Z" transform="translate(-226.652 -0.625)" fill="#000105"/><g transform="translate(446.554 173.004)"><path d="M712.7,174.517h1.06l4.571,10.1h-1.218l-1.174-2.651h-5.459l-1.19,2.651h-1.161Zm2.794,6.432-2.278-5.115-2.293,5.115Z" transform="translate(-708.128 -174.445)" fill="#000105"/><path d="M735.508,183.066l.7-.831a4.774,4.774,0,0,0,3.439,1.419c1.346,0,2.235-.716,2.235-1.734,0-.931-.5-1.461-2.607-1.9-2.307-.5-3.367-1.246-3.367-2.922,0-1.576,1.39-2.737,3.3-2.737a5.23,5.23,0,0,1,3.524,1.233l-.658.873a4.407,4.407,0,0,0-2.895-1.089c-1.3,0-2.134.717-2.134,1.648s.515,1.475,2.722,1.949c2.235.486,3.267,1.3,3.267,2.864,0,1.72-1.433,2.837-3.424,2.837A5.867,5.867,0,0,1,735.508,183.066Z" transform="translate(-723.305 -174.355)" fill="#000105"/><path d="M757.647,183.066l.7-.831a4.773,4.773,0,0,0,3.439,1.419c1.346,0,2.234-.716,2.234-1.734,0-.931-.5-1.461-2.607-1.9-2.307-.5-3.367-1.246-3.367-2.922,0-1.576,1.39-2.737,3.3-2.737a5.228,5.228,0,0,1,3.524,1.233l-.658.873a4.407,4.407,0,0,0-2.895-1.089c-1.3,0-2.134.717-2.134,1.648s.515,1.475,2.722,1.949c2.235.486,3.267,1.3,3.267,2.864,0,1.72-1.433,2.837-3.424,2.837A5.869,5.869,0,0,1,757.647,183.066Z" transform="translate(-735.577 -174.355)" fill="#000105"/><path d="M781.307,174.676h7.25v1.032h-6.118v3.424h5.473v1.032h-5.473v3.51h6.19v1.032h-7.321Z" transform="translate(-748.692 -174.533)" fill="#000105"/><path d="M806.377,175.722H803.01v-1.046h7.88v1.046h-3.367v8.984h-1.146Z" transform="translate(-760.722 -174.533)" fill="#000105"/><path d="M710.057,206.8H711.2l3.653,5.474,3.654-5.474h1.146v10.029h-1.132V208.71l-3.652,5.373h-.058l-3.654-5.359v8.109h-1.1Z" transform="translate(-709.197 -192.342)" fill="#000105"/><path d="M742.033,206.645h1.061l4.57,10.1h-1.218l-1.174-2.651h-5.459l-1.19,2.651h-1.161Zm2.794,6.433-2.278-5.115-2.293,5.115Z" transform="translate(-724.388 -192.254)" fill="#000105"/><path d="M766.217,206.8h1.06l6.319,8.038V206.8h1.1v10.029h-.9l-6.476-8.223v8.223h-1.1Z" transform="translate(-740.327 -192.342)" fill="#000105"/><path d="M795.669,206.645h1.059l4.571,10.1h-1.218l-1.175-2.651h-5.458l-1.19,2.651H791.1Zm2.794,6.433-2.279-5.115-2.292,5.115Z" transform="translate(-754.119 -192.254)" fill="#000105"/><path d="M817.7,211.606a5.034,5.034,0,0,1,5.029-5.187,5.286,5.286,0,0,1,3.74,1.333l-.731.86a4.268,4.268,0,0,0-3.052-1.147,3.926,3.926,0,0,0-3.811,4.141,3.875,3.875,0,0,0,3.968,4.169,4.724,4.724,0,0,0,2.894-1v-2.493h-3.052v-1.018h4.14v4a6.076,6.076,0,0,1-4.025,1.533A4.926,4.926,0,0,1,817.7,211.606Z" transform="translate(-768.865 -192.128)" fill="#000105"/><path d="M845.719,206.8h7.25v1.032h-6.118v3.424h5.474v1.032h-5.474v3.51h6.19v1.032h-7.321Z" transform="translate(-784.396 -192.342)" fill="#000105"/><path d="M868.529,206.8h1.146l3.653,5.474,3.654-5.474h1.146v10.029H877V208.71l-3.653,5.373h-.058l-3.653-5.359v8.109h-1.1Z" transform="translate(-797.04 -192.342)" fill="#000105"/><path d="M898.214,206.8h7.25v1.032h-6.118v3.424h5.474v1.032h-5.474v3.51h6.19v1.032h-7.322Z" transform="translate(-813.494 -192.342)" fill="#000105"/><path d="M921.027,206.8h1.06l6.319,8.038V206.8h1.1v10.029h-.9l-6.476-8.223v8.223h-1.1Z" transform="translate(-826.14 -192.342)" fill="#000105"/><path d="M949.452,207.85h-3.367V206.8h7.88v1.046H950.6v8.983h-1.146Z" transform="translate(-840.029 -192.342)" fill="#000105"/></g><rect width="20.21" height="5.911" transform="translate(285.017 172.419)" fill="#43a947"/><rect width="20.21" height="5.911" transform="translate(264.807 191.636)" fill="#43a947"/><rect width="20.21" height="5.911" transform="translate(274.912 182.027)" fill="#43a947"/></g></svg>