<svg xmlns="http://www.w3.org/2000/svg" width="42.41" height="47" viewBox="0 0 42.41 47"><path d="M42.41,16.524H39.2v-4.7L27.375,0H3.213V16.524H0v23.5H3.213V47H39.2V40.024H42.41ZM28.182,4.7,34.5,11.016H28.182ZM5.967,2.754H25.428V13.77H36.443v2.754H5.967ZM36.443,44.246H5.967V40.024H36.443Zm3.213-6.977H2.754V19.278h36.9Zm0,0" fill="#43a947"/><path d="M75.754,250.354h1.331a4.177,4.177,0,1,0,0-8.354H73v12.484h2.754Zm0-5.6h1.331a1.423,1.423,0,1,1,0,2.846H75.754Zm0,0" transform="translate(-66.299 -219.785)" fill="#43a947"/><path d="M201.262,248.977v-1.469A5.514,5.514,0,0,0,195.754,242H193v12.484h2.754A5.514,5.514,0,0,0,201.262,248.977Zm-5.508-4.223a2.757,2.757,0,0,1,2.754,2.754v1.469a2.757,2.757,0,0,1-2.754,2.754Zm0,0" transform="translate(-175.283 -219.785)" fill="#43a947"/><path d="M317.754,250.675h2.754v-2.754h-2.754v-3.167h4.131V242H315v12.484h2.754Zm0,0" transform="translate(-286.084 -219.785)" fill="#43a947"/></svg>