<svg xmlns="http://www.w3.org/2000/svg" width="39.23" height="41.758" viewBox="0 0 39.23 41.758"><path d="M34.759,25.111H27.783c2.925-4.638,4.406-8.846,4.406-12.534a12.574,12.574,0,1,0-25.148,0c0,3.688,1.481,7.9,4.406,12.534H4.469L0,41.758h39.23ZM9.486,12.577a10.128,10.128,0,1,1,20.256,0c0,3.629-1.813,8.144-5.244,13.057a57.08,57.08,0,0,1-4.885,6.035,57.018,57.018,0,0,1-4.884-6.035c-3.43-4.913-5.244-9.428-5.244-13.057ZM6.345,27.558H13.09a56.11,56.11,0,0,0,6.524,7.594,55.237,55.237,0,0,0,6.524-7.594h6.745L36.04,39.312H3.189Zm0,0" transform="translate(0.001)" fill="#fafafa"/><path d="M167.043,95.527A6.525,6.525,0,1,0,160.52,89,6.531,6.531,0,0,0,167.043,95.527Zm0-10.6A4.078,4.078,0,1,1,162.966,89,4.082,4.082,0,0,1,167.043,84.924Zm0,0" transform="translate(-147.428 -75.75)" fill="#fafafa"/></svg>