<svg xmlns="http://www.w3.org/2000/svg" width="32.861" height="32.861" viewBox="0 0 32.861 22.75"><g transform="translate(0.537 0.5)"><g transform="translate(0 0)"><g transform="translate(0)"><path d="M33.908,103.046c-.3-.417-7.569-10.211-16.846-10.211S.521,102.629.217,103.046a1.126,1.126,0,0,0,0,1.328c.3.417,7.569,10.211,16.846,10.211s16.541-9.794,16.846-10.211A1.125,1.125,0,0,0,33.908,103.046Zm-16.846,9.289c-6.834,0-12.752-6.5-14.5-8.626,1.75-2.127,7.656-8.624,14.5-8.624s12.752,6.5,14.5,8.626C29.817,105.838,23.911,112.335,17.062,112.335Z" transform="translate(0 -92.835)" fill="#fff" stroke="#fff" stroke-width="1"/></g></g><g transform="translate(12.063 5.876)"><path d="M159.721,154.725a5,5,0,1,0,5,5A5.005,5.005,0,0,0,159.721,154.725Zm0,8.332a3.333,3.333,0,1,1,3.333-3.333A3.337,3.337,0,0,1,159.721,163.057Z" transform="translate(-154.722 -154.725)" fill="#fff" stroke="#fff" stroke-width="1"/></g></g></svg>